HIERARCHY
ROOT Hips
{
	OFFSET 0.00000 0.00000 0.00000
	CHANNELS 6 Xposition Yposition Zposition Zrotation Yrotation Xrotation 
	JOINT RightUpLegDummy
	{
		OFFSET 0 0 0
		CHANNELS 3 Zrotation Yrotation Xrotation
		JOINT RightUpLeg
		{
			OFFSET -3.52197 -3.41223 0.04002
			CHANNELS 3 Zrotation Yrotation Xrotation
			JOINT RightLeg
			{
				OFFSET 0.00006 -17.42390 1.60435
				CHANNELS 3 Zrotation Yrotation Xrotation
				JOINT RightFoot
				{
					OFFSET 0.06153 -16.50078 -1.63901
					CHANNELS 3 Zrotation Yrotation Xrotation
					JOINT RightToes
					{
						OFFSET 0.00298 -1.73825 3.34613
						CHANNELS 3 Zrotation Yrotation Xrotation
						End Site
						{
							OFFSET 0.00480 -0.05416 3.85043
						}
					}
				}
			}
		}
	}
	JOINT SpineDummy
	{
		OFFSET 0 0 0
		CHANNELS 3 Zrotation Yrotation Xrotation
		JOINT Spine
		{
			OFFSET 0.00000 4.68130 0.00000
			CHANNELS 3 Zrotation Yrotation Xrotation
			JOINT Spine1
			{
				OFFSET -0.00000 10.10138 0.05002
				CHANNELS 3 Zrotation Yrotation Xrotation
				JOINT HEadDummy
				{
					OFFSET 0 0 0
					CHANNELS 3 Zrotation Yrotation Xrotation
					JOINT Head
					{
						OFFSET -0.00000 3.43865 0.00438
						CHANNELS 3 Zrotation Yrotation Xrotation
						End Site
						{
							OFFSET -0.11417 5.02924 0.98962
						}
					}
				}
				JOINT LeftShoulder1Dummy
				{
					OFFSET 0 0 0
					CHANNELS 3 Zrotation Yrotation Xrotation
					JOINT LeftShoulder1
					{
						OFFSET 3.53937 -0.14262 -0.08662
						CHANNELS 3 Zrotation Yrotation Xrotation
						JOINT LeftArm
						{
							OFFSET 4.04833 -0.00133 0.12681
							CHANNELS 3 Zrotation Yrotation Xrotation
							JOINT LeftForeArm
							{
								OFFSET 10.33880 -0.01036 -0.55515
								CHANNELS 3 Zrotation Yrotation Xrotation
								JOINT LeftHand
								{
									OFFSET 8.69677 0.07543 0.40060
									CHANNELS 3 Zrotation Yrotation Xrotation
									End Site
									{
										OFFSET 5.28377 -0.21905 0.59205
									}
								}
							}
						}
					}
				}
				JOINT RightShoulderDummy
				{
					OFFSET 0 0 0
					CHANNELS 3 Zrotation Yrotation Xrotation
					JOINT RightShoulder
					{
						OFFSET -3.53937 -0.14262 -0.08660
						CHANNELS 3 Zrotation Yrotation Xrotation
						JOINT RightArm
						{
							OFFSET -4.04833 -0.00133 0.12683
							CHANNELS 3 Zrotation Yrotation Xrotation
							JOINT RightForeArm
							{
								OFFSET -10.37987 -0.01039 -0.55511
								CHANNELS 3 Zrotation Yrotation Xrotation
								JOINT RightHand
								{
									OFFSET -8.67398 0.07538 0.40058
									CHANNELS 3 Zrotation Yrotation Xrotation
									End Site
									{
										OFFSET -5.24810 -0.21916 0.59204
									}
								}
							}
						}
					}
				}
			}
		}
	}
	JOINT LeftUpLegDummy
	{
		OFFSET 0 0 0
		CHANNELS 3 Zrotation Yrotation Xrotation
		JOINT LeftUpLeg
		{
			OFFSET 3.52197 -3.41223 0.04002
			CHANNELS 3 Zrotation Yrotation Xrotation
			JOINT LeftLeg
			{
				OFFSET -0.00012 -17.42399 1.60337
				CHANNELS 3 Zrotation Yrotation Xrotation
				JOINT LeftFoot
				{
					OFFSET -0.09972 -16.50070 -1.63802
					CHANNELS 3 Zrotation Yrotation Xrotation
					JOINT LeftToes
					{
						OFFSET -0.01575 -1.73823 3.34611
						CHANNELS 3 Zrotation Yrotation Xrotation
						End Site
						{
							OFFSET 0.03150 -0.01868 3.85031
						}
					}
				}
			}
		}
	}
}
MOTION
Frames: 11
Frame Time: 0.033333
-44.6653 39.8990 73.4027 -179.7450 3.7439 178.0230 0.0000 0.0000 0.0000 3.4514 -0.8502 1.8466 -1.5069 -8.7159 2.9135 -4.2490 0.2717 -3.3570 0.0000 -0.0000 -0.0000 0.0000 0.0000 0.0000 1.4154 0.2556 1.5966 1.3887 -0.0738 1.3104 -0.0000 0.0000 -0.0000 -0.0056 2.3975 -6.3081 -0.0000 0.0000 -0.0000 -33.7498 -2.4317 2.3611 -45.3067 -15.2303 -18.8452 -9.5357 5.0789 50.1286 17.6180 -2.1079 -1.1239 -0.0000 0.0000 -0.0000 35.1986 5.2364 3.6032 39.5952 4.4161 -16.6226 10.8601 -0.3018 23.3833 -13.8766 1.6886 -0.8334 0.0000 0.0000 0.0000 0.5416 1.4859 2.7714 1.9913 9.9173 4.8432 1.8799 -0.0820 -5.1551 0.0000 0.0000 -0.0000
-44.6530 39.8990 73.4052 -179.7340 3.7421 178.1010 0.0000 0.0000 0.0000 3.4817 -0.8156 1.7589 -1.5099 -8.7038 2.9247 -4.2489 0.2717 -3.3460 0.0000 -0.0000 -0.0000 0.0000 0.0000 0.0000 1.3798 0.2451 1.4963 1.4608 -0.0997 1.3737 -0.0000 0.0000 -0.0000 -0.0052 2.2967 -6.4082 -0.0000 0.0000 -0.0000 -33.8166 -2.4714 2.3809 -45.1911 -15.1362 -18.7844 -9.6082 5.0833 49.9558 17.6588 -2.1948 -1.1393 -0.0000 0.0000 -0.0000 35.0733 5.2168 3.5840 39.7308 4.5469 -16.7683 10.7294 -0.4011 24.2656 -13.7494 1.4449 -0.7984 0.0000 0.0000 0.0000 0.5856 1.5135 2.6682 1.9754 9.8818 4.8799 1.8426 -0.0796 -5.1627 0.0000 0.0000 -0.0000
-44.6366 39.8990 73.4126 -179.7310 3.7139 178.1500 0.0000 0.0000 0.0000 3.4671 -0.8660 1.6944 -1.4220 -8.6705 2.9324 -4.3151 0.2759 -3.3570 0.0000 -0.0000 -0.0000 0.0000 0.0000 0.0000 1.3760 0.2149 1.5876 1.5035 -0.1366 1.2448 -0.0000 0.0000 -0.0000 0.0317 2.3647 -6.3067 -0.0000 0.0000 -0.0000 -34.0088 -2.5487 2.4234 -44.9005 -14.9042 -18.6776 -9.7519 5.0909 49.6468 17.6680 -2.3664 -1.1650 -0.0000 0.0000 -0.0000 34.8573 5.1753 3.5479 40.0719 4.7397 -16.8227 10.6670 -0.5326 24.7293 -13.4912 1.2866 -0.7657 0.0000 0.0000 0.0000 0.6306 1.5455 2.5778 1.9503 9.8125 4.9260 1.8345 -0.0790 -5.1686 0.0000 0.0000 -0.0000
-44.6258 39.8990 73.4219 -179.7770 3.6540 178.1220 0.0000 0.0000 0.0000 3.3430 -1.0492 1.6877 -1.2375 -8.5767 2.9785 -4.4263 0.2833 -3.4159 0.0000 -0.0000 -0.0000 0.0000 0.0000 0.0000 1.3122 0.2257 1.9194 1.6028 -0.1333 0.8583 -0.0000 0.0000 -0.0000 -0.0275 2.3448 -6.1361 -0.0000 0.0000 -0.0000 -34.2390 -2.5566 2.4407 -44.6595 -14.7840 -18.6158 -9.8343 5.0912 49.6028 17.6127 -2.4111 -1.1677 -0.0000 0.0000 -0.0000 34.6720 5.1316 3.5138 40.4119 4.7826 -16.6300 10.7870 -0.5151 24.1474 -13.3109 1.3263 -0.7596 0.0000 0.0000 0.0000 0.6084 1.5372 2.5962 1.9250 9.7589 4.9014 1.8352 -0.0791 -5.1458 0.0000 0.0000 -0.0000
-44.6158 39.8990 73.4314 -179.8440 3.5780 178.0850 0.0000 0.0000 0.0000 3.2016 -1.2278 1.6619 -1.0806 -8.4786 3.0801 -4.5294 0.2901 -3.4897 0.0000 -0.0000 -0.0000 0.0000 0.0000 0.0000 1.1138 0.3097 2.1829 1.8571 -0.0808 0.5142 -0.0000 0.0000 -0.0000 -0.2328 2.1121 -6.2053 -0.0000 0.0000 -0.0000 -34.3810 -2.5382 2.4420 -44.5868 -14.8500 -18.4878 -9.9091 5.0877 49.6932 17.6261 -2.2580 -1.1463 -0.0000 0.0000 -0.0000 34.6291 5.1126 3.5023 40.4939 4.6530 -16.3896 10.9147 -0.3155 23.6689 -13.3427 1.3498 -0.7640 0.0000 0.0000 0.0000 0.5555 1.5059 2.6414 1.9052 9.7204 4.8322 1.8081 -0.0773 -5.1049 0.0000 0.0000 -0.0000
-44.5986 39.8990 73.4397 -179.8730 3.5206 178.0640 0.0000 0.0000 0.0000 3.1687 -1.2768 1.6384 -1.0389 -8.4637 3.1595 -4.6004 0.2948 -3.5281 0.0000 -0.0000 -0.0000 0.0000 0.0000 0.0000 0.9153 0.4182 2.2074 2.1291 -0.0137 0.4980 -0.0000 0.0000 -0.0000 -0.4040 2.0339 -6.4504 -0.0000 0.0000 -0.0000 -34.4337 -2.6191 2.4779 -44.5524 -14.9564 -18.1737 -10.1076 5.0924 49.4543 17.8145 -2.1182 -1.1384 -0.0000 0.0000 -0.0000 34.7058 5.1148 3.5099 40.3923 4.5555 -16.2766 10.9165 -0.0199 23.9458 -13.5357 1.2510 -0.7644 0.0000 0.0000 0.0000 0.5596 1.5151 2.6542 1.8842 9.6568 4.8117 1.7927 -0.0764 -5.0876 0.0000 0.0000 -0.0000
-44.5741 39.8990 73.4422 -179.8580 3.5159 178.0180 0.0000 0.0000 0.0000 3.2476 -1.2153 1.7049 -1.0849 -8.5239 3.1302 -4.6246 0.2963 -3.5192 0.0000 -0.0000 -0.0000 0.0000 0.0000 0.0000 0.8937 0.4960 2.1702 2.2037 0.0494 0.6737 -0.0000 0.0000 -0.0000 -0.4014 2.2350 -6.5456 -0.0000 0.0000 -0.0000 -34.4726 -2.7528 2.5344 -44.4761 -15.0068 -17.8155 -10.3517 5.1041 48.9604 18.0172 -2.1977 -1.1636 -0.0000 0.0000 -0.0000 34.8061 5.1204 3.5210 40.3603 4.6086 -16.1558 10.9129 0.2886 24.1176 -13.7880 1.1263 -0.7651 0.0000 0.0000 0.0000 0.6393 1.5900 2.6858 1.8426 9.5692 4.8456 1.8135 -0.0777 -5.1048 0.0000 0.0000 -0.0000
-44.5449 39.8990 73.4377 -179.8420 3.5666 177.9780 0.0000 0.0000 0.0000 3.3603 -1.1126 1.8033 -1.1658 -8.5906 3.0343 -4.6058 0.2950 -3.4963 0.0000 -0.0000 -0.0000 0.0000 0.0000 0.0000 1.0322 0.5417 2.2456 2.0546 0.1214 0.6660 -0.0000 0.0000 -0.0000 -0.3276 2.2971 -6.4176 -0.0000 0.0000 -0.0000 -34.4531 -2.7699 2.5401 -44.5210 -14.9696 -17.5784 -10.4819 5.1113 48.6641 17.9279 -2.3913 -1.1863 -0.0000 0.0000 -0.0000 34.9652 5.1478 3.5462 40.3564 4.6845 -15.8726 11.0364 0.5160 23.6120 -13.9928 1.0783 -0.7713 0.0000 0.0000 0.0000 0.7389 1.6850 2.7390 1.7810 9.5111 4.8624 1.8140 -0.0777 -5.1246 0.0000 0.0000 -0.0000
-44.5106 39.8978 73.4326 -179.8360 3.6490 178.0170 0.0000 0.0000 0.0000 3.4665 -1.0061 1.7861 -1.2392 -8.6210 2.9937 -4.6101 0.2953 -3.4950 0.0000 -0.0000 -0.0000 0.0000 0.0000 0.0000 1.2292 0.5569 2.3170 1.7780 0.1878 0.4527 -0.0000 0.0000 -0.0000 -0.3306 2.0652 -6.3457 -0.0000 0.0000 -0.0000 -34.2316 -2.6472 2.4767 -44.8356 -14.8515 -17.4013 -10.5226 5.1138 48.5613 17.5493 -2.4534 -1.1696 -0.0000 0.0000 -0.0000 35.2223 5.2114 3.5950 40.2152 4.7354 -15.5940 11.1768 0.5443 23.2128 -13.9432 1.1182 -0.7730 0.0000 0.0000 0.0000 0.8305 1.7589 2.7147 1.7316 9.5070 4.8699 1.7559 -0.0740 -5.1361 0.0000 0.0000 -0.0000
-44.4722 39.8943 73.4304 -179.8110 3.7320 178.0960 0.0000 0.0000 0.0000 3.5594 -0.9456 1.6868 -1.2376 -8.6013 3.0343 -4.7066 0.3016 -3.5199 0.0000 -0.0000 -0.0000 0.0000 0.0000 0.0000 1.5082 0.5055 2.2007 1.4022 0.1959 0.4530 -0.0000 0.0000 -0.0000 -0.3599 2.0320 -6.4541 -0.0000 0.0000 -0.0000 -33.8328 -2.4907 2.3896 -45.2785 -14.8716 -17.2787 -10.5368 5.1185 48.3918 17.3019 -2.3950 -1.1441 -0.0000 0.0000 -0.0000 35.3434 5.2537 3.6232 40.1673 4.9981 -15.5618 11.1657 0.3773 23.5103 -13.5475 1.2298 -0.7628 0.0000 0.0000 0.0000 0.9334 1.8201 2.6074 1.7250 9.5186 4.9550 1.6768 -0.0689 -5.1740 0.0000 0.0000 -0.0000
-44.4350 39.8893 73.4236 -179.7790 3.7701 178.0950 0.0000 0.0000 0.0000 3.6142 -0.9707 1.6828 -1.1530 -8.5585 3.0838 -4.8500 0.3109 -3.5587 0.0000 -0.0000 -0.0000 0.0000 0.0000 0.0000 1.8605 0.3840 1.9817 0.9952 0.1298 0.8320 -0.0000 0.0000 -0.0000 -0.2519 2.4887 -6.7032 -0.0000 0.0000 -0.0000 -33.5359 -2.3603 2.3200 -45.5426 -15.2481 -17.3838 -10.4547 5.1215 48.3218 17.4700 -2.4450 -1.1629 -0.0000 0.0000 -0.0000 35.0885 5.2148 3.5846 40.5318 5.5380 -15.6727 11.0635 0.2247 23.8270 -13.1808 1.3485 -0.7544 0.0000 0.0000 0.0000 1.0213 1.8571 2.5584 1.7706 9.5098 5.1089 1.5954 -0.0637 -5.2501 0.0000 0.0000 -0.0000
